      *********** ****    ****      ***      ******** *********** ****    *** **********
           *+*     +*+*+* *+*+*+   *+* *+*   *+*    *+*    *+*     *+*+*   *+* *+*        
           +*+     +*+ +*+*+ +*+  +*+   +*+  +*+           +*+     *+*+*+  +*+ +*+        
           +$+     +$+  +*+  +$+ +$++*++$++* *$*           +$+     +$+ +*+ +$+ +$++*++$  
           +$+     +$+       +$+ +$+     +$+ +$+   +$+$    +$+     +$+  +$+$+$ +$+        
           $+$     $+$       $+$ $+$     $+$ $+$    $+$    $+$     $+$   $+$+$ $+$        
       $$$$$$$$$$$ $$$       $$$ $$$     $$$  $$$$$$$$ $$$$$$$$$$$ $$$    $$$$ $$$$$$$$$$     
                                                



                           Another Fine Release Brought to you from - IMAGiNE                   
                                                 

********************************************************************************************************************                                
                                  The Other Guys TS XViD - IMAGiNE
********************************************************************************************************************

Ripper ...........:IMAGiNE                                      IMDB Rating.......:7.4/10                             
Video Codec.......:XVID                                         Release Date......:09/08/10
Audio Codec.......:MP3                                          Theatre Date......:06/08/10
Audio Bitrate.....:128                                          Runtime...........:1h 41mn
Subtitles.........:NIL                                          Language..........:ENGLISH
Resolution........:640 x 272                                    IMDb URL..........:http://www.imdb.com/title/tt1386588/


[color=yellow]DETAILS:[/color]

Video
ID                               : 0
Format                           : MPEG-4 Visual
Format profile                   : Advanced Simple@L5
Format settings, BVOP            : Yes
Format settings, QPel            : No
Format settings, GMC             : No warppoints
Format settings, Matrix          : Default (MPEG)
Muxing mode                      : Packed bitstream
Codec ID                         : XVID
Codec ID/Hint                    : XviD
Duration                         : 1h 41mn
Bit rate                         : 1 100 Kbps
Width                            : 640 pixels
Height                           : 272 pixels
Display aspect ratio             : 2.35:1
Frame rate                       : 30.000 fps
Color space                      : YUV
Chroma subsampling               : 4:2:0
Bit depth                        : 8 bits
Scan type                        : Progressive
Bits/(Pixel*Frame)               : 0.211
Stream size                      : 796 MiB (89%)
Writing library                  : XviD 1.2.1 (UTC 2008-12-04)

Audio
ID                               : 1
Format                           : MPEG Audio
Format version                   : Version 1
Format profile                   : Layer 3
Codec ID                         : 55
Codec ID/Hint                    : MP3
Duration                         : 1h 41mn
Bit rate mode                    : Constant
Bit rate                         : 128 Kbps
Channel(s)                       : 2 channels
Sampling rate                    : 44.1 KHz
Stream size                      : 92.6 MiB (10%)
Alignment                        : Split accross interleaves
Interleave, duration             : 33 ms (1.00 video frame)
Interleave, preload duration     : 500 ms


[color=yellow]NOTES:[/color]

IMAGiNE bringing you another release.....The Other Guys

Right sources used was the cam video from Hogs and some new line audio off KrackerMan....thanks to all ;-)
Workdone....We took the and made a script to correct the white balance,brightness and contrast.
Then dropped that into vdub and used some more filters ...inc rgb eq,smoother,sharpen,hue,intes and a few more.
Now the audio was some pretty good LiNE audio ,but needed to be cut and synced and then filtered some.
Once done it was a just case of muxing together and packing it up .

Enjoy...


[color=yellow]SCREENS:[/color]

[img]http://imagine.takagari.com/The%20Other%20Guys/vlcsnap-2010-08-09-23h06m37s47.png[/img]
[img]http://imagine.takagari.com/The%20Other%20Guys/vlcsnap-2010-08-09-23h06m59s10.png[/img]
[img]http://imagine.takagari.com/The%20Other%20Guys/vlcsnap-2010-08-09-23h07m04s58.png[/img]
[img]http://imagine.takagari.com/The%20Other%20Guys/vlcsnap-2010-08-09-23h07m13s153.png[/img]
[img]http://imagine.takagari.com/The%20Other%20Guys/vlcsnap-2010-08-09-23h07m35s120.png[/img]


[color=yellow]GREETS:[/color]

FLAWL3SS,ViSiON,FUSiON,Rx,SecretMyth,BirdFlu,ELEKTRI4KA and Autotron
And to all the other p2p grps past and present 

Special thanks to Python-Lair for the server :)
And special thanks to supreme-speeds.com for the ripbox :)
Also to The Scene Nation for all their help :)
Special thanks to TrackerAccess for there help as well :)

[COLOR=RED]Looking for these,syncers,cammers,silver supplier.....Have anything to offer????......
Contact us imaginegroup@hushmail.com[/COLOR]





                              
     

............................................................................
Downloaded from atomictorrents.net

Enjoy being with us!

You Can Find our Torrents only and only at: http://atomictorrents.net
............................................................................